{"title":"Terminator Salvation dvdrip latino","uid":7247396,"size":860096512,"categoryP":"video","categoryS":"movies","magnet":"?xt=urn:btih:1bec8aa9b1085e9f5a41ce17cf6e58317bfac01c&amp;dn=Terminator+Salvation+dvdrip+latino&amp;tr=udp%3A%2F%2Ftracker.openbittorrent.com%3A80&amp;tr=udp%3A%2F%2Fopen.demonii.com%3A1337&amp;tr=udp%3A%2F%2Ftracker.coppersurfer.tk%3A6969&amp;tr=udp%3A%2F%2Fexodus.desync.com%3A6969","seeders":0,"leechers":1,"uploader":"chiverito","files":1,"time":1336342274,"description":"terminator salvation dvdrip audio latino 820 mb\n\ninfo del archivo:\n\n\n\nFormat                                   : AVI\nFormat/Info                              : Audio Video Interleave\nFile size                                : 820 MiB\nDuration                                 : 1h 54mn\nOverall bit rate                         : 999 Kbps\nWriting application                      : VirtualDubMod 1.5.4.1 (build 2178/release)\nWriting library                          : VirtualDubMod build 2178/release\n\nVideo\nID                                       : 0\nFormat                                   : MPEG-4 Visual\nFormat profile                           : Advanced Simple@L5\nFormat settings, BVOP                    : 1\nFormat settings, QPel                    : No\nFormat settings, GMC                     : No warppoints\nFormat settings, Matrix                  : Custom\nCodec ID                                 : XVID\nCodec ID/Hint                            : XviD\nDuration                                 : 1h 54mn\nBit rate                                 : 912 Kbps\nWidth                                    : 640 pixels\nHeight                                   : 272 pixels\nDisplay aspect ratio                     : 2.35:1\nFrame rate                               : 23.976 fps\nColor space                              : YUV\nChroma subsampling                       : 4:2:0\nBit depth                                : 8 bits\nScan type                                : Progressive\nCompression mode                         : Lossy\nBits/(Pixel*Frame)                       : 0.219\nStream size                              : 749 MiB (91%)\nWriting library                          : XviD 64\n\nAudio\nID                                       : 1\nFormat                                   : MPEG Audio\nFormat version                           : Version 1\nFormat profile                           : Layer 3\nMode                                     : Joint stereo\nMode extension                           : MS Stereo\nCodec ID                                 : 55\nCodec ID/Hint                            : MP3\nDuration                                 : 1h 54mn\nBit rate mode                            : Constant\nBit rate                                 : 80.0 Kbps\nChannel(s)                               : 2 channels\nSampling rate                            : 32.0 KHz\nCompression mode                         : Lossy\nStream size                              : 65.7 MiB (8%)\nAlignment                                : Aligned on interleaves\nInterleave, duration                     : 83 ms (2.00 video frames)\nInterleave, preload duration             : 504 ms\nWriting library                          : LAME3.97 \nEncoding settings                        : -m j -V 4 -q 2 -lowpass 13.5 -b 80\nLanguage                                 : Spanish\n","torrent":{"xt":"urn:btih:1bec8aa9b1085e9f5a41ce17cf6e58317bfac01c","amp;dn":"Terminator+Salvation+dvdrip+latino","amp;tr":["udp%3A%2F%2Ftracker.openbittorrent.com%3A80","udp%3A%2F%2Fopen.demonii.com%3A1337","udp%3A%2F%2Ftracker.coppersurfer.tk%3A6969","udp%3A%2F%2Fexodus.desync.com%3A6969"],"infoHash":"1bec8aa9b1085e9f5a41ce17cf6e58317bfac01c","infoHashBuffer":{"type":"Buffer","data":[27,236,138,169,177,8,94,159,90,65,206,23,207,110,88,49,123,250,192,28]},"announce":[],"urlList":[]}}